# xmcd
#
# Track frame offsets:
#	182
#	12497
#	25960
#	39047
#	53377
#	65902
#	78590
#	92520
#	104215
#	118005
#	130232
#	144022
#	158810
#	170425
#	183095
#	195345
#	207682
#	221480
#	233422
#	246890
#	260005
#	272350
#	285085
#	297770
#
# Disc length: 4114 seconds
# Revision: 3
# Processed by: cddbd v1.5.2PL0 Copyright (c) Steve Scherf et al.
# Submitted via: dBpowerAMP V12.0
#
DISCID=4a101018
DTITLE=Little Walter - Boss Blues Harmonica
DYEAR=1988
DGENRE=Rythym and Blues
TTITLE0=Juke
TTITLE1=Can't Hold Out Much Longer
TTITLE2=Mean Old World
TTITLE3=Sad Hours
TTITLE4=Tell Me Mama
TTITLE5=Off The Wall
TTITLE6=Blues with a Feeling
TTITLE7=Too Late
TTITLE8=You're so Fine
TTITLE9=Last Night
TTITLE10=You Better Watch Yourself
TTITLE11=Blue Night
TTITLE12=My Babe
TTITLE13=Thunderbird
TTITLE14=I Got to Go
TTITLE15=Boom, Boom out goes the Lights
TTITLE16=Flying Saucer
TTITLE17=It's too Late Brother
TTITLE18=Teenage Beat
TTITLE19=Just a Feeling
TTITLE20=Shake Dancer
TTITLE21=Ah'w Baby
TTITLE22=Back Track
TTITLE23=Just your Fool
EXTD=
EXTT0=
EXTT1=
EXTT2=
EXTT3=
EXTT4=
EXTT5=
EXTT6=
EXTT7=
EXTT8=
EXTT9=
EXTT10=
EXTT11=
EXTT12=
EXTT13=
EXTT14=
EXTT15=
EXTT16=
EXTT17=
EXTT18=
EXTT19=
EXTT20=
EXTT21=
EXTT22=
EXTT23=
PLAYORDER=
